<?xml version="1.0" encoding="iso-8859-1"?>
<!-- Generator: Adobe Illustrator 17.1.0, SVG Export Plug-In . SVG Version: 6.00 Build 0)  -->
<!DOCTYPE svg PUBLIC "-//W3C//DTD SVG 1.1//EN" "http://www.w3.org/Graphics/SVG/1.1/DTD/svg11.dtd">
<svg version="1.1" id="Capa_1" xmlns="http://www.w3.org/2000/svg" xmlns:xlink="http://www.w3.org/1999/xlink" x="0px" y="0px"
	 viewBox="0 0 324.589 324.589" style="enable-background:new 0 0 324.589 324.589;" xml:space="preserve">
<path d="M310.03,24.433c-6.247-6.249-16.378-6.247-22.627,0L150.642,161.193c-14.388-29.926-17.423-47.312-8.99-51.721
	c25.818-13.485,38.133-31.258,19.777-78.123C153.174,10.254,141.797,0,126.645,0c-11.849,0-23.565,6.502-33.903,12.238
	c-2.268,1.258-4.41,2.447-6.484,3.531C71.605,23.422,63.981,47.75,65.862,80.848c2.064,36.315,15.17,79.226,36.902,120.828
	c0.85,1.627,1.708,3.232,2.569,4.826l-90.774,90.774c-6.249,6.248-6.249,16.379,0,22.627c3.124,3.125,7.218,4.686,11.313,4.686
	c4.095,0,8.19-1.563,11.314-4.686l85.054-84.813c38.482,58.449,83.171,89.077,111.692,89.077c0.002,0,0.004,0,0.006,0
	c4.275,0,8.168-0.945,11.569-2.33c14.796-6.029,42.337-17.373,48.895-38.792c3.517-11.487,0.632-24.349-8.575-38.11
	c-13.892-20.751-29.175-30.869-46.723-30.869c-13.255,0-25.407,5.753-36.72,11.661c-1.021,0.534-2.049,0.786-3.141,0.786
	c-5.72,0.001-15.868-6.695-32.904-35.761L310.03,47.062C316.279,40.813,316.279,30.681,310.03,24.433z"/>
<g>
</g>
<g>
</g>
<g>
</g>
<g>
</g>
<g>
</g>
<g>
</g>
<g>
</g>
<g>
</g>
<g>
</g>
<g>
</g>
<g>
</g>
<g>
</g>
<g>
</g>
<g>
</g>
<g>
</g>
</svg>
